<?xml version="1.0" standalone="no"?>
<!DOCTYPE svg PUBLIC "-//W3C//DTD SVG 20010904//EN"
 "http://www.w3.org/TR/2001/REC-SVG-20010904/DTD/svg10.dtd">
<svg version="1.0" xmlns="http://www.w3.org/2000/svg"
 width="900.000000pt" height="900.000000pt" viewBox="0 0 900.000000 900.000000"
 preserveAspectRatio="xMidYMid meet">

<g transform="translate(0.000000,900.000000) scale(0.100000,-0.100000)"
fill="#000000" stroke="none">
<path d="M4319 8355 c-20 -7 -54 -25 -75 -39 -22 -14 -50 -27 -64 -29 -27 -4
-39 -30 -19 -43 9 -5 10 -2 6 9 -4 11 -2 14 9 10 9 -3 27 3 42 14 72 53 150
68 175 34 7 -11 30 -20 58 -23 26 -3 92 -26 146 -52 55 -25 105 -46 111 -46 7
0 12 -8 12 -17 0 -11 23 -31 62 -53 116 -65 321 -253 452 -413 21 -26 44 -47
52 -47 7 0 28 -21 45 -47 18 -27 36 -50 40 -53 11 -9 118 -169 138 -209 11
-20 27 -44 36 -51 10 -8 21 -24 25 -36 5 -13 21 -25 37 -28 25 -6 29 -12 30
-42 1 -19 8 -43 17 -53 9 -10 16 -25 16 -35 0 -22 26 -72 42 -83 16 -10 39
-66 45 -110 5 -31 6 -32 26 -18 28 20 37 19 37 -2 0 -10 7 -27 15 -37 8 -11
15 -28 15 -38 0 -10 4 -26 9 -36 4 -9 17 -44 28 -77 11 -33 35 -98 52 -145
l32 -85 -7 -146 c-6 -141 -5 -150 20 -232 24 -78 32 -90 84 -138 84 -76 144
-179 113 -191 -4 -1 -11 -54 -13 -117 -4 -66 -2 -108 3 -100 6 9 9 -7 9 -43 0
-41 -11 -89 -37 -165 l-38 -108 -1 -175 c-1 -201 -5 -243 -14 -150 -6 63 -7
63 -8 -30 -2 -150 15 -350 33 -400 9 -25 20 -85 25 -133 5 -49 14 -94 20 -101
9 -11 39 -132 40 -159 0 -5 4 -6 9 -3 11 7 25 -49 16 -64 -3 -5 1 -10 11 -10
11 0 15 -6 11 -20 -3 -12 0 -20 7 -20 7 0 13 -14 14 -32 5 -94 7 -103 30 -113
19 -9 22 -16 18 -51 -3 -22 1 -62 9 -89 8 -26 15 -59 15 -73 0 -14 8 -34 17
-45 17 -18 17 -19 0 -32 -13 -9 -16 -20 -12 -38 5 -18 2 -26 -11 -31 -16 -6
-16 -8 1 -26 10 -11 15 -26 11 -35 -3 -9 -1 -25 4 -35 7 -13 6 -20 -1 -22 -9
-3 -8 -9 1 -24 15 -25 1 -130 -18 -127 -7 2 -12 -9 -12 -27 0 -16 -9 -53 -20
-82 -16 -43 -35 -132 -54 -250 -1 -9 -8 -23 -15 -31 -7 -9 -9 -26 -6 -40 4
-16 -7 -69 -29 -144 -19 -65 -38 -135 -42 -156 -3 -20 -11 -40 -17 -44 -6 -4
-8 3 -4 18 3 13 8 47 11 74 5 40 4 45 -4 26 -6 -14 -13 -52 -16 -85 -3 -34
-10 -76 -16 -94 -15 -51 -4 -47 26 8 15 28 31 48 36 45 10 -6 -24 -135 -43
-166 -7 -11 -21 -18 -32 -17 -15 2 -21 -4 -23 -22 -6 -50 -44 -180 -55 -187
-7 -4 -8 5 -4 26 4 20 3 30 -3 26 -6 -3 -10 -14 -10 -24 0 -10 -16 -61 -35
-112 -19 -52 -35 -105 -35 -119 -1 -24 -1 -24 -13 -5 -11 18 -12 16 -17 -20
-3 -24 -10 -39 -18 -37 -6 1 -12 -2 -12 -8 0 -5 4 -10 9 -10 9 0 -1 -61 -15
-96 -11 -26 -65 -115 -120 -197 -23 -34 -51 -82 -64 -106 -12 -24 -40 -66 -61
-93 -21 -28 -39 -54 -39 -59 0 -6 -11 -22 -25 -37 -14 -15 -25 -33 -25 -40 0
-7 -4 -10 -10 -7 -5 3 -10 -4 -10 -16 0 -18 -4 -20 -22 -14 -63 19 -68 18 -68
-8 0 -31 -34 -47 -72 -32 -14 6 -18 2 -18 -19 0 -28 -6 -31 -43 -17 -17 7 -38
5 -68 -6 -24 -8 -120 -26 -214 -40 -259 -38 -497 -35 -630 8 -16 5 -65 12
-108 16 -62 5 -80 10 -88 25 -5 10 -15 18 -21 18 -9 0 -9 -3 0 -12 19 -19 14
-33 -5 -16 -17 13 -133 39 -245 54 -29 4 -69 20 -105 43 -40 26 -87 44 -153
60 -114 27 -194 62 -209 90 -14 26 -4 26 29 1 14 -11 32 -19 40 -19 8 0 4 6
-11 14 -28 15 -79 83 -79 106 0 11 -2 12 -9 1 -7 -11 -14 -11 -42 3 -19 10
-45 27 -59 39 -22 19 -23 19 -10 1 15 -20 14 -20 -8 -1 -12 11 -22 25 -22 33
0 7 -4 13 -10 13 -21 0 -67 103 -137 308 -41 120 -85 252 -98 295 -14 42 -30
87 -36 99 -7 13 -13 52 -14 89 -4 115 -20 107 -19 -9 1 -103 10 -152 60 -328
8 -28 14 -60 14 -71 0 -41 52 -200 95 -292 71 -148 172 -275 255 -319 79 -42
105 -58 115 -69 12 -15 149 -79 190 -89 17 -4 43 -16 59 -27 28 -20 89 -35
171 -42 62 -6 256 -63 220 -65 -55 -4 51 -20 155 -24 52 -3 156 -9 230 -15
299 -24 302 -24 382 -7 42 9 109 16 147 16 38 0 72 4 75 9 3 4 40 11 83 13 58
4 95 14 143 36 36 17 83 35 106 41 71 19 237 212 297 346 55 124 132 305 151
358 10 26 28 60 40 75 23 28 106 193 106 210 0 5 7 13 16 16 13 5 15 1 10 -21
-6 -25 -5 -26 5 -9 7 11 12 33 11 49 0 16 6 40 15 53 8 13 17 44 18 69 2 25 8
51 13 58 6 7 22 53 37 102 36 127 55 186 71 216 7 14 11 29 8 32 -3 3 5 27 19
54 59 114 125 366 138 523 5 69 14 153 20 188 6 34 8 73 5 87 -4 15 1 36 15
59 22 38 21 55 -9 154 -9 30 -24 58 -34 63 -9 5 -22 26 -28 47 -13 50 -13 75
2 66 8 -5 9 0 5 17 -4 13 -14 58 -23 99 -9 41 -46 177 -81 302 -83 297 -102
382 -110 505 -3 57 -10 100 -15 97 -10 -7 -3 269 8 313 4 15 16 42 27 61 16
27 20 54 22 140 1 59 9 152 18 207 9 55 17 143 17 195 0 118 -17 158 -118 284
-40 50 -72 98 -72 108 0 12 -7 18 -21 18 -16 0 -19 4 -14 18 21 51 25 370 5
382 -7 4 -10 13 -6 19 4 6 0 23 -7 38 -8 15 -18 47 -22 71 -4 26 -19 57 -35
75 -15 18 -33 51 -39 74 -6 22 -18 46 -27 54 -23 19 -35 46 -51 113 -15 67
-28 87 -49 79 -10 -4 -14 2 -14 20 0 14 -4 28 -9 31 -4 3 -18 31 -30 63 -11
32 -39 78 -61 103 -22 25 -76 100 -121 168 -44 68 -104 151 -132 185 -59 72
-174 187 -188 187 -5 0 -9 9 -9 20 0 10 -7 23 -16 28 -8 5 -23 20 -32 33 -46
68 -311 286 -424 349 -63 35 -79 35 -22 0 61 -38 30 -32 -47 9 -54 28 -96 42
-156 51 -51 8 -84 17 -87 26 -3 8 -4 14 -3 14 1 0 17 -4 35 -9 17 -5 32 -6 32
-1 0 8 -128 51 -147 49 -4 0 -24 -6 -44 -14z m-924 -7035 c21 -8 25 -14 17
-22 -9 -9 -22 -4 -54 19 -23 17 -44 36 -46 43 -3 8 8 4 25 -8 17 -12 43 -26
58 -32z m515 -330 c18 -12 2 -12 -25 0 -13 6 -15 9 -5 9 8 0 22 -4 30 -9z
m287 -86 c-3 -3 -12 -4 -19 -1 -8 3 -5 6 6 6 11 1 17 -2 13 -5z m80 -10 c-3
-3 -12 -4 -19 -1 -8 3 -5 6 6 6 11 1 17 -2 13 -5z"/>
<path d="M4530 8319 c0 -5 5 -7 10 -4 6 4 19 1 28 -7 15 -12 16 -11 3 5 -15
19 -41 23 -41 6z"/>
<path d="M4250 8269 c0 -5 5 -7 10 -4 6 3 10 8 10 11 0 2 -4 4 -10 4 -5 0 -10
-5 -10 -11z"/>
<path d="M4090 8220 c-8 -5 -11 -12 -7 -16 4 -4 13 -2 19 4 15 15 7 24 -12 12z"/>
<path d="M3920 8130 c0 -5 4 -10 9 -10 6 0 13 5 16 10 3 6 -1 10 -9 10 -9 0
-16 -4 -16 -10z"/>
<path d="M3859 8073 c-34 -36 -37 -42 -14 -26 36 25 70 61 63 68 -2 2 -24 -16
-49 -42z"/>
<path d="M4210 8041 c-25 -12 -30 -21 -30 -48 0 -26 6 -36 25 -45 14 -6 25
-18 25 -25 0 -11 -10 -13 -47 -7 -59 8 -62 10 -56 32 2 10 -4 28 -15 40 -23
27 -32 28 -32 4 0 -10 -5 -23 -12 -30 -9 -9 -7 -12 10 -12 12 0 22 -4 22 -10
0 -6 -28 -10 -63 -10 -62 0 -64 -1 -113 -47 -27 -27 -120 -136 -206 -244 -86
-107 -187 -227 -225 -265 -38 -38 -93 -97 -122 -131 -30 -35 -60 -63 -67 -63
-8 0 -20 -15 -28 -32 -7 -18 -76 -96 -153 -173 -77 -77 -142 -147 -145 -157
-4 -9 -21 -19 -38 -23 -24 -5 -30 -11 -25 -26 7 -22 -48 -97 -82 -110 -13 -5
-23 -17 -23 -28 0 -10 -16 -31 -35 -45 -23 -18 -38 -40 -46 -69 -6 -23 -22
-63 -35 -89 -13 -26 -24 -50 -24 -53 0 -19 109 6 217 50 78 31 67 9 -27 -53
-104 -70 -101 -72 44 -47 159 28 416 112 416 136 0 6 6 9 13 7 20 -4 67 12 67
23 0 6 4 7 10 4 5 -3 24 2 42 12 18 9 42 18 53 20 11 1 58 15 105 31 l85 29
32 79 c34 83 47 133 63 249 6 39 14 93 18 120 4 28 5 62 2 75 -4 14 -2 33 4
42 13 21 -6 98 -32 133 -20 27 -51 35 -134 35 -43 0 -59 3 -56 13 11 31 175
97 242 97 56 0 166 -62 219 -124 l48 -56 -11 -138 c-13 -161 -28 -257 -45
-292 -7 -14 -10 -30 -8 -37 2 -6 0 -13 -4 -16 -5 -3 -7 -24 -5 -46 4 -42 20
-53 41 -27 6 7 32 16 59 20 26 4 70 10 97 14 28 4 74 6 104 4 48 -3 53 -5 48
-24 -6 -20 -5 -20 13 -2 16 17 16 22 4 41 -8 12 -10 24 -5 27 5 3 11 -4 15
-17 5 -19 8 -20 17 -7 8 12 9 10 4 -7 -5 -19 -2 -23 17 -24 13 -1 27 -1 32 0
5 1 12 -2 15 -6 3 -4 82 -46 175 -93 183 -92 213 -117 244 -203 21 -58 23 -58
161 10 106 53 110 58 134 186 20 103 16 106 -106 82 -86 -16 -97 -16 -168 -1
-42 8 -109 19 -148 22 -46 5 -80 13 -94 25 -12 9 -20 19 -17 21 3 3 51 19 107
36 124 39 304 118 366 160 57 40 92 54 137 54 19 0 38 5 41 10 4 6 16 4 33 -7
14 -9 33 -14 42 -11 9 4 23 1 30 -5 8 -6 25 -8 39 -5 20 5 27 2 35 -16 5 -13
9 -20 9 -16 2 12 66 -57 97 -103 27 -42 30 -54 29 -122 -2 -81 -6 -89 -89
-182 -27 -30 -32 -41 -21 -43 8 -2 15 -8 15 -13 0 -5 -12 -6 -27 -3 -27 6 -27
6 -11 -12 62 -67 71 -84 65 -130 -5 -48 -39 -95 -87 -118 -18 -9 -99 -12 -299
-10 -162 2 -282 -1 -293 -7 -10 -5 -25 -23 -33 -38 -29 -57 -141 -64 -157 -10
-4 13 -24 85 -43 159 -31 117 -40 139 -70 168 -19 18 -39 49 -45 68 -10 28
-16 34 -40 34 -16 0 -41 -5 -57 -11 -15 -6 -68 -12 -118 -14 -85 -3 -195 -27
-195 -43 0 -10 79 -55 113 -65 31 -9 67 -60 67 -94 0 -12 -18 -73 -40 -135
-22 -62 -38 -118 -36 -124 3 -7 17 -18 33 -26 15 -8 45 -24 66 -36 21 -12 44
-22 52 -22 8 0 15 -4 15 -10 0 -5 6 -10 13 -11 20 0 137 -151 147 -191 12 -42
-1 -88 -25 -88 -9 0 -14 -8 -12 -22 2 -19 -6 -26 -43 -38 -25 -8 -51 -19 -58
-24 -14 -8 -63 0 -72 13 -10 15 -169 110 -194 117 -14 3 -24 9 -21 13 6 10
-24 51 -37 51 -6 0 -16 8 -23 17 -12 16 -18 15 -82 -15 -173 -80 -277 -100
-324 -63 -41 32 -107 61 -137 61 -29 0 -61 24 -45 33 4 2 33 12 63 22 62 20
230 104 230 116 0 13 -52 49 -79 56 -14 3 -28 9 -31 14 -3 4 -48 10 -100 14
-52 4 -99 9 -103 12 -19 12 -1 78 31 112 18 20 35 46 38 59 4 14 12 21 20 18
7 -3 16 -1 19 5 4 5 10 7 15 4 12 -8 33 23 26 40 -3 8 -1 15 4 15 6 0 10 6 10
14 0 11 -20 7 -87 -15 -47 -16 -91 -29 -98 -29 -6 0 -53 -20 -105 -45 -51 -25
-120 -55 -154 -66 -34 -11 -70 -23 -81 -28 -11 -5 -47 -13 -79 -20 -33 -6 -63
-16 -67 -22 -4 -6 -11 -9 -16 -6 -15 10 -96 -13 -109 -31 -8 -12 -32 -17 -83
-20 -64 -4 -76 -1 -110 21 l-38 26 -7 -45 c-3 -24 -15 -54 -26 -66 -25 -27
-25 -38 0 -45 22 -6 27 -28 9 -39 -6 -3 -8 -17 -4 -31 3 -14 8 -75 11 -136 3
-61 7 -114 9 -117 2 -4 -5 -14 -16 -24 -26 -22 -18 -32 11 -16 12 6 28 27 36
45 12 30 39 55 58 55 13 0 4 -25 -20 -57 l-25 -33 41 0 c61 0 47 -24 -16 -28
-27 -1 -59 -8 -72 -14 -20 -10 -21 -14 -9 -32 9 -13 16 -70 21 -151 12 -235
16 -263 37 -258 25 7 24 -13 -1 -27 -18 -9 -29 -40 -15 -40 11 0 115 83 115
91 0 12 47 11 55 -1 3 -5 -1 -10 -9 -10 -9 0 -16 -9 -16 -20 0 -11 -5 -20 -11
-20 -6 0 -9 7 -5 15 8 22 -10 18 -27 -5 -7 -11 -29 -30 -48 -43 -19 -12 -35
-32 -36 -42 -2 -11 -6 -35 -9 -53 -5 -26 -2 -37 20 -59 27 -27 31 -35 19 -47
-4 -4 -13 -32 -19 -63 l-11 -55 34 -14 c40 -17 41 -26 8 -48 -28 -18 -70 -99
-60 -115 3 -6 8 -51 10 -101 2 -50 8 -97 15 -105 9 -11 8 -19 -4 -37 -9 -12
-16 -38 -16 -58 0 -51 -23 -118 -37 -113 -18 6 -16 -22 2 -37 13 -11 14 -15 2
-29 -24 -27 -6 -287 26 -376 14 -38 35 -97 47 -130 12 -33 28 -67 35 -75 17
-20 75 -130 75 -144 1 -6 11 -23 23 -38 l22 -27 62 60 c34 33 67 58 72 55 16
-10 -9 -55 -38 -72 -14 -9 -18 -13 -8 -10 20 6 22 -7 4 -26 -7 -7 -16 -21 -20
-32 -6 -15 -10 -16 -22 -6 -12 10 -15 9 -15 -4 0 -20 62 -136 72 -136 4 0 22
12 40 28 59 50 68 55 68 43 0 -17 -78 -99 -101 -106 -20 -7 -27 -35 -8 -35 20
0 129 114 141 147 15 42 33 43 24 2 -5 -27 -4 -30 14 -24 30 10 14 -22 -21
-40 -26 -14 -129 -110 -129 -120 0 -3 6 -5 13 -5 8 0 24 -23 37 -50 25 -53 31
-58 49 -37 6 8 29 22 51 32 22 10 40 24 40 32 0 7 5 13 10 13 26 0 5 -29 -50
-70 -33 -25 -60 -51 -60 -57 0 -17 15 -16 30 2 7 8 16 15 21 15 5 0 9 -7 9
-15 0 -8 -6 -15 -14 -15 -24 0 -27 -32 -7 -94 20 -65 25 -64 35 6 4 26 11 50
16 53 13 8 23 -13 13 -27 -4 -7 -8 -30 -9 -51 l0 -37 26 25 c26 25 50 33 50
17 0 -5 -20 -29 -43 -53 -24 -24 -47 -56 -50 -71 -4 -14 0 -94 8 -177 8 -84
12 -158 8 -166 -6 -17 12 -21 22 -5 7 11 45 14 45 4 0 -3 -13 -23 -30 -44 -38
-47 -38 -53 -1 -32 41 23 47 11 21 -40 -24 -46 -23 -60 6 -190 17 -74 35 -82
54 -22 14 40 44 48 34 9 -5 -21 -3 -24 11 -19 28 11 -2 -30 -38 -51 -16 -10
-25 -20 -19 -24 5 -3 11 -15 13 -26 3 -15 12 -8 39 34 19 30 36 49 38 43 5
-17 -28 -80 -59 -112 -29 -29 -37 -50 -19 -50 12 0 52 -91 46 -107 -11 -27 14
-22 34 7 29 40 33 35 14 -18 -14 -42 -14 -43 21 -98 19 -30 35 -61 35 -69 0
-25 31 -17 76 20 25 20 45 31 49 25 11 -18 25 -10 25 15 0 14 5 25 10 25 6 0
16 -11 22 -25 12 -26 28 -34 28 -14 0 8 5 7 15 -1 18 -15 31 -6 37 24 1 11 9
21 17 24 11 4 13 -2 8 -26 -6 -30 -6 -31 18 -20 14 6 28 8 33 4 10 -11 -28
-36 -55 -36 -27 0 -30 -15 -6 -28 19 -11 11 -42 -10 -42 -8 0 -22 9 -32 20
-25 27 -30 25 -30 -12 0 -17 -6 -33 -12 -35 -9 -3 -13 9 -13 42 0 43 -1 46
-22 39 -30 -9 -40 -17 -60 -51 l-17 -29 46 -47 c46 -47 46 -47 72 -30 14 9 39
29 54 45 38 38 64 37 29 -1 -43 -46 -52 -59 -52 -76 0 -23 34 -18 65 11 30 28
42 26 26 -4 -6 -11 -8 -28 -5 -36 13 -33 31 -14 45 50 l15 65 -28 6 c-38 7
-36 26 2 21 32 -5 37 1 19 19 -8 8 -6 14 9 22 21 11 33 3 45 -31 4 -11 12 -15
22 -12 10 4 15 0 15 -11 0 -9 -13 -22 -29 -28 -35 -13 -47 -35 -55 -99 -6 -52
-7 -51 72 -63 24 -4 46 -13 48 -20 5 -13 47 -14 77 0 13 6 15 10 6 21 -14 17
-5 20 75 28 113 10 261 100 389 238 38 40 73 78 79 83 162 161 228 236 228
259 0 6 -14 16 -32 21 -20 6 -34 18 -38 32 -3 12 -34 48 -69 79 l-63 58 -78
-42 c-43 -23 -86 -42 -97 -42 -11 0 -30 11 -43 25 -22 23 -22 27 -10 65 12 37
12 42 -6 54 -22 17 -18 23 20 30 30 5 39 12 98 63 21 18 49 35 63 39 14 3 25
10 25 15 0 4 12 14 27 21 32 16 157 193 148 209 -9 13 -170 5 -323 -17 -184
-27 -286 -73 -337 -154 -30 -48 -55 -107 -48 -114 3 -3 1 -11 -4 -18 -17 -22
-32 -77 -23 -83 5 -3 7 -12 4 -20 -4 -8 -10 -12 -15 -9 -5 3 -24 -6 -42 -20
-44 -34 -70 -33 -101 5 -53 62 -79 118 -72 152 8 43 39 117 49 117 4 0 7 5 7
11 0 10 13 29 60 86 6 7 10 16 10 21 0 5 7 23 15 39 21 43 38 140 30 180 -3
19 -2 33 4 33 5 0 11 7 13 16 2 13 15 6 54 -29 51 -46 61 -66 80 -165 7 -39 1
-39 124 11 57 23 180 55 370 97 157 34 300 69 319 78 31 15 67 23 114 23 10 0
68 11 130 24 62 14 144 27 182 30 39 3 111 13 160 21 116 21 214 19 308 -4 20
-6 37 -8 37 -5 0 3 7 0 15 -7 8 -6 20 -8 26 -4 9 5 10 2 6 -10 -5 -14 -3 -17
8 -12 21 8 135 -43 135 -60 0 -8 7 -14 16 -14 8 0 13 -4 10 -8 -2 -4 4 -13 15
-20 23 -15 17 -27 63 133 54 190 61 232 46 250 -10 12 -10 19 -2 27 17 17 15
25 -9 31 -25 7 -16 27 11 27 31 0 40 32 47 154 l6 113 -32 11 c-17 6 -31 17
-31 25 0 8 -10 22 -22 30 -22 15 -21 16 35 16 31 1 57 6 57 11 0 6 -37 10 -90
10 -70 0 -90 3 -90 14 0 7 13 16 30 19 21 5 28 11 24 21 -3 9 -13 14 -22 13
-18 -2 -22 3 -22 28 0 27 27 16 51 -20 18 -26 29 -34 44 -30 11 2 26 5 34 5 9
0 11 7 7 23 -4 12 -9 30 -11 41 -2 10 -9 24 -16 32 -14 17 -5 44 16 44 10 0
15 10 15 30 0 20 -5 30 -15 30 -9 0 -21 11 -27 25 -8 18 -16 24 -27 19 -9 -4
-29 -9 -45 -12 -21 -3 -27 -1 -24 9 3 8 28 18 61 23 54 9 56 10 51 35 -19 80
-68 218 -81 228 -8 6 -12 16 -9 22 8 13 -27 100 -60 150 -19 29 -26 54 -27 93
-1 34 -8 59 -18 69 -9 9 -20 35 -24 58 -4 23 -10 41 -15 41 -12 0 -20 -29 -10
-35 20 -12 9 -25 -20 -25 -22 0 -43 -12 -74 -40 -24 -22 -50 -40 -59 -40 -9 0
-21 -9 -27 -20 -11 -20 -40 -28 -40 -10 0 18 62 80 81 80 28 0 95 68 125 127
23 45 26 57 16 78 -7 14 -12 50 -12 80 0 30 -5 66 -12 80 -10 22 -8 29 17 55
l29 30 -24 25 -24 25 26 28 c29 31 42 84 26 100 -9 9 -7 20 5 44 9 18 21 71
27 117 6 48 17 92 25 101 18 20 19 42 4 57 -6 6 -8 16 -4 23 17 27 21 373 5
413 -5 12 -9 16 -9 8 -2 -29 -51 31 -51 62 0 18 -4 27 -12 24 -7 -2 -13 -13
-13 -25 0 -11 -3 -24 -7 -27 -3 -4 0 -22 8 -40 16 -39 18 -75 5 -75 -13 0 -21
27 -14 46 3 8 -3 23 -15 34 -11 10 -22 25 -25 32 -2 7 -7 10 -11 6 -4 -3 -3
-16 4 -27 9 -17 7 -26 -12 -51 -27 -37 -40 -38 -33 -2 6 24 5 25 -8 10 -25
-31 -28 -6 -3 26 13 17 33 51 45 75 l23 44 -26 -7 c-42 -10 -39 12 4 34 22 11
40 27 40 35 0 19 -14 19 -30 0 -18 -22 -33 -19 -20 4 13 25 13 78 0 86 -7 4
-7 12 0 25 5 10 9 43 9 72 -1 29 -3 45 -6 36 -2 -10 -9 -18 -14 -18 -13 0 -11
27 2 36 18 11 4 193 -22 294 -24 96 -117 303 -219 490 -37 69 -93 172 -122
230 -74 142 -155 265 -256 388 -47 56 -87 102 -89 102 -10 0 21 -41 83 -110
67 -75 116 -144 149 -210 23 -47 11 -33 -78 85 -41 55 -101 129 -134 165 -32
36 -70 81 -85 101 -16 21 -40 40 -60 45 -26 8 -34 16 -36 38 l-4 29 -21 -34
c-16 -27 -22 -30 -25 -16 -5 23 -8 22 -52 -13 -21 -16 -41 -30 -45 -30 -4 0
-14 -8 -21 -17 -10 -14 -13 -15 -14 -4 0 8 20 33 45 55 52 48 67 89 38 105
-14 7 -27 6 -48 -5 -35 -18 -47 -8 -18 16 29 23 18 34 -13 13 -14 -9 -24 -11
-24 -5 0 6 5 14 10 17 17 10 11 19 -22 38 -21 12 -34 15 -36 8 -7 -20 -22 -11
-22 13 0 13 -6 23 -12 23 -7 -1 -44 9 -83 22 -86 28 -227 40 -251 21 -11 -10
-17 -11 -23 -2 -9 15 -72 11 -111 -7z m170 -62 c0 -6 -7 -8 -16 -5 -12 4 -15
2 -10 -9 3 -10 -1 -15 -13 -15 -28 0 -32 10 -13 35 13 17 21 21 35 14 9 -6 17
-15 17 -20z m66 -62 c-3 -12 -5 -24 -5 -26 -1 -2 -8 2 -16 9 -11 9 -12 17 -4
31 13 25 30 15 25 -14z m-371 -237 c-7 -22 5 -26 22 -9 12 12 33 4 33 -12 0
-13 -97 -11 -105 2 -8 11 22 38 43 39 9 0 11 -7 7 -20z m319 -32 c-7 -11 -34
-10 -34 1 0 6 9 9 19 8 11 0 17 -5 15 -9z m93 -573 c6 -14 7 -27 3 -30 -11 -7
-41 35 -34 47 9 14 19 9 31 -17z m-942 -94 c5 -9 -44 -51 -59 -51 -11 0 -6 36
6 48 14 14 44 16 53 3z m1095 -221 c0 -5 -4 -10 -10 -10 -5 0 -10 5 -10 10 0
6 5 10 10 10 6 0 10 -4 10 -10z m451 -828 c25 -9 42 -23 52 -45 15 -30 15 -34
-5 -67 -12 -19 -33 -55 -46 -79 -14 -24 -44 -62 -68 -84 -23 -22 -40 -45 -38
-52 10 -24 -36 -43 -181 -76 -27 -6 -62 -18 -77 -25 -41 -21 -34 -11 14 21 40
26 41 28 20 36 -14 5 -22 17 -22 31 0 13 -14 43 -30 68 -16 25 -30 50 -30 56
0 6 -9 19 -20 29 -25 23 -27 50 -2 40 49 -20 167 -45 181 -39 17 7 59 7 101
-2 23 -4 27 0 38 41 7 25 12 49 12 54 0 5 -27 11 -60 15 -33 4 -60 11 -60 17
0 14 131 75 160 74 14 0 41 -7 61 -13z m-1665 -194 c5 -17 0 -28 -22 -47 -25
-21 -29 -22 -32 -8 -2 9 -8 17 -13 17 -5 0 -9 5 -9 10 0 6 8 10 19 10 10 0 21
9 24 20 7 26 24 25 33 -2z m1905 11 c11 -5 24 -22 30 -35 8 -23 3 -33 -51 -91
-73 -80 -80 -114 -26 -139 35 -17 66 -67 66 -108 0 -25 -60 -105 -99 -132 -11
-8 -21 -22 -21 -30 0 -22 -30 -16 -39 8 -9 26 9 95 40 146 16 28 17 37 7 43
-9 6 -7 9 8 9 42 0 40 47 -2 75 -36 24 -47 61 -34 113 12 51 5 66 -16 37 -9
-12 -13 -31 -10 -47 6 -30 -8 -39 -18 -12 -11 29 -6 77 10 95 13 15 20 32 23
61 2 16 106 22 132 7z m329 -29 c0 -5 -9 -10 -21 -10 -11 0 -17 5 -14 10 3 6
13 10 21 10 8 0 14 -4 14 -10z m206 -95 c6 -24 0 -44 -10 -34 -11 11 -17 59
-7 59 6 0 13 -11 17 -25z m24 4 c0 -6 -4 -7 -10 -4 -5 3 -10 11 -10 16 0 6 5
7 10 4 6 -3 10 -11 10 -16z m-3000 -33 c0 -18 -16 -29 -30 -21 -13 8 -1 35 16
35 8 0 14 -6 14 -14z m343 -33 c4 -3 1 -13 -6 -21 -13 -16 -10 -15 36 8 21 10
30 11 39 2 9 -9 7 -12 -9 -12 -11 0 -26 -7 -33 -15 -21 -25 -54 -15 -57 18 -2
25 14 36 30 20z m1805 -78 c11 -9 1 -22 -50 -66 -98 -84 -183 -167 -178 -172
7 -7 152 52 170 68 35 32 141 12 148 -28 2 -10 -2 -24 -8 -32 -19 -23 -148
-105 -164 -105 -8 0 -18 -5 -22 -11 -10 -16 17 -29 37 -18 10 5 32 9 49 9 24
0 33 6 41 28 l11 27 10 -25 c6 -14 17 -38 25 -53 8 -16 12 -39 9 -51 -8 -32
-54 -41 -81 -16 -11 11 -37 26 -58 35 l-37 15 0 -62 c0 -107 -39 -147 -72 -76
-26 55 -46 62 -86 28 -24 -20 -32 -34 -28 -47 3 -10 2 -24 -3 -31 -10 -16 -61
-26 -61 -12 0 6 -5 8 -10 5 -27 -17 -52 133 -30 176 16 29 38 23 55 -17 12
-30 19 -35 42 -32 24 3 28 7 25 30 -2 25 -1 26 45 25 l48 -2 3 49 c2 31 -1 52
-9 57 -13 8 -100 -31 -132 -59 -23 -20 -26 -15 -34 47 -5 46 -3 55 19 79 35
38 62 82 50 82 -15 0 -250 -89 -294 -111 -52 -27 -68 -25 -68 9 0 15 -3 37 -6
49 -5 17 -1 25 12 30 11 4 24 11 29 15 45 37 89 68 96 68 4 0 22 12 40 27 l32
27 -18 -35 c-9 -18 -29 -46 -43 -61 -14 -16 -21 -28 -14 -28 21 0 122 49 122
59 0 5 8 7 19 4 10 -2 25 3 34 11 8 9 24 16 34 16 10 0 41 11 68 25 28 13 54
25 59 25 4 0 21 11 38 25 25 21 36 24 76 18 26 -3 53 -11 60 -18z m-1956 -120
c0 -5 -5 -11 -11 -13 -6 -2 -11 4 -11 13 0 9 5 15 11 13 6 -2 11 -8 11 -13z
m2638 -49 c0 -8 -4 -18 -10 -21 -5 -3 -10 3 -10 14 0 12 5 21 10 21 6 0 10 -6
10 -14z m-1603 -74 c10 -10 30 -23 46 -30 35 -15 49 -53 45 -118 -4 -64 10
-81 70 -90 52 -7 92 -28 92 -48 0 -7 9 -21 20 -31 11 -10 20 -25 20 -33 0 -12
-23 -14 -137 -12 -76 2 -145 2 -153 1 -14 -1 -40 -42 -53 -83 -4 -12 -13 -15
-29 -10 -19 4 -21 3 -12 -9 9 -11 7 -21 -10 -45 -44 -65 -83 -112 -168 -199
-124 -127 -120 -134 46 -86 157 46 280 71 349 71 35 0 67 3 70 7 4 3 22 7 39
9 54 4 101 14 115 25 7 6 16 8 21 5 4 -3 21 7 36 21 15 14 29 23 32 20 2 -2
-2 -10 -11 -17 -25 -21 -17 -36 26 -50 29 -10 44 -22 51 -40 5 -15 22 -37 39
-49 24 -18 28 -25 18 -37 -9 -11 -60 -14 -283 -14 -282 0 -368 -8 -526 -50
-65 -17 -80 -25 -113 -62 -33 -39 -137 -234 -137 -260 0 -5 22 -30 48 -53 62
-56 103 -144 110 -235 5 -77 -1 -86 -73 -95 -42 -6 -54 -3 -77 14 -32 25 -64
117 -74 210 -6 59 -8 63 -21 45 -8 -10 -26 -41 -40 -69 -14 -27 -53 -94 -87
-147 -51 -82 -66 -98 -93 -103 -44 -10 -71 2 -94 38 -30 51 -24 100 21 152 9
11 23 36 30 55 7 19 50 85 95 145 109 144 170 245 150 245 -9 0 -41 -11 -73
-24 -31 -13 -106 -38 -165 -55 -60 -17 -126 -40 -147 -51 -62 -32 -111 -35
-163 -12 -70 31 -95 97 -62 161 20 41 99 64 149 45 31 -12 16 -20 -41 -22 -85
-4 -118 -32 -97 -86 14 -36 39 -37 111 -4 37 17 122 50 188 74 101 35 116 43
94 49 -15 4 -44 2 -65 -4 -22 -6 -52 -11 -69 -11 -53 0 -13 18 80 35 148 28
164 33 206 77 21 22 39 44 39 48 0 4 -18 25 -39 47 -34 33 -42 50 -56 119 -17
77 -20 82 -51 93 -46 17 -74 55 -74 102 0 22 5 39 11 39 6 0 8 -8 5 -18 -10
-30 16 -54 60 -56 l39 -1 2 87 c1 48 -3 90 -8 94 -6 3 -6 10 -1 17 6 7 6 34 1
67 -5 30 -12 76 -15 102 -4 26 -13 53 -20 59 -10 8 -11 16 -3 30 9 17 12 18
32 4 21 -13 90 -28 129 -27 10 1 30 -12 47 -27 36 -34 54 -112 54 -233 0 -98
4 -102 70 -74 18 7 86 28 150 46 94 27 118 37 123 54 4 12 15 32 25 45 11 13
19 34 19 47 0 13 5 24 10 24 6 0 22 23 35 52 28 61 26 64 -59 73 -50 6 -56 9
-40 18 10 7 44 14 74 18 30 3 60 7 67 8 7 0 20 -7 30 -17z m1258 -42 c50 -31
50 -45 1 -124 -24 -39 -51 -96 -61 -126 -58 -180 -167 -312 -243 -294 -39 10
-59 44 -26 44 34 0 88 81 182 270 53 107 96 199 97 205 0 5 -10 14 -23 21 -38
19 -37 24 3 24 21 0 52 -9 70 -20z m-2575 -129 c0 -12 -20 -25 -27 -18 -7 7 6
27 18 27 5 0 9 -4 9 -9z m-89 -94 c-12 -12 -45 -1 -37 12 3 5 15 7 27 4 13 -4
17 -9 10 -16z m229 -114 c0 -13 -3 -13 -15 -3 -8 7 -12 16 -9 21 8 13 24 1 24
-18z m2680 -289 c0 -17 -22 -14 -28 4 -2 7 3 12 12 12 9 0 16 -7 16 -16z m-30
-26 c13 -22 16 -36 9 -43 -12 -12 -29 10 -29 38 0 20 -11 22 -28 5 -9 -9 -12
-8 -12 4 0 15 12 25 33 27 4 1 16 -14 27 -31z m202 -70 c-15 -15 -26 -4 -18
18 5 13 9 15 18 6 9 -9 9 -15 0 -24z m-922 -73 c0 -8 -7 -15 -15 -15 -16 0
-20 12 -8 23 11 12 23 8 23 -8z m700 -85 c0 -5 -7 -10 -15 -10 -8 0 -15 5 -15
10 0 6 7 10 15 10 8 0 15 -4 15 -10z m-2445 -30 c-3 -5 -11 -10 -16 -10 -6 0
-7 5 -4 10 3 6 11 10 16 10 6 0 7 -4 4 -10z m1085 -77 c19 -8 42 -18 50 -22
18 -9 42 -56 46 -88 1 -12 5 -27 9 -32 3 -6 1 -28 -5 -50 -14 -53 -78 -108
-169 -145 -79 -33 -77 -46 6 -46 l53 0 31 -62 c30 -59 30 -62 13 -76 -14 -9
-32 -12 -64 -7 -25 4 -58 8 -75 11 -71 9 -101 16 -123 30 -13 9 -42 18 -65 22
-40 7 -42 9 -45 45 -2 26 4 49 20 75 12 20 21 43 20 50 -2 8 5 16 16 18 19 5
56 73 46 83 -3 4 -61 5 -129 3 -89 -2 -126 1 -131 10 -4 6 -1 15 7 20 86 51
183 103 223 119 27 11 55 27 61 36 7 9 17 13 23 10 5 -4 21 -3 34 2 34 14 108
11 148 -6z m1011 -219 c73 -22 141 -58 156 -83 20 -32 25 -93 11 -121 -9 -17
-25 -27 -48 -31 -21 -4 -26 -7 -13 -8 17 -1 21 -6 16 -18 -4 -12 0 -11 11 5
28 36 103 31 171 -13 66 -42 91 -75 76 -103 -12 -22 -79 -52 -117 -52 -39 0
-222 -57 -252 -79 -33 -24 -106 -100 -101 -106 2 -2 31 3 64 11 33 7 92 14
130 14 95 0 157 -30 246 -119 56 -56 69 -75 69 -100 0 -41 -27 -94 -82 -159
-72 -87 -131 -129 -221 -157 -45 -15 -89 -32 -97 -40 -8 -7 -26 -13 -40 -13
-14 1 -69 -7 -124 -17 -83 -15 -100 -15 -108 -4 -8 11 -9 10 -5 -2 6 -17 -11
-23 -91 -33 -34 -5 -167 -35 -374 -87 -155 -38 -180 -38 -210 4 -12 17 -37 47
-55 66 -44 46 -86 123 -134 250 -37 95 -43 131 -22 131 4 0 55 -36 111 -81 57
-44 105 -79 106 -77 10 13 34 87 29 91 -3 3 5 24 17 45 25 45 88 93 146 112
21 7 49 19 61 27 12 8 30 13 40 11 30 -5 42 9 33 40 -13 46 -33 82 -44 82 -6
0 -38 -18 -71 -41 -71 -47 -148 -88 -190 -100 -24 -7 -41 -4 -83 17 -70 34
-157 120 -167 163 -10 47 4 55 56 32 57 -27 82 -26 192 4 51 14 109 30 130 36
44 12 45 21 12 64 -13 18 -21 35 -18 39 4 3 1 6 -5 6 -7 0 -12 -5 -12 -10 0
-25 -26 16 -28 44 -2 16 -11 44 -22 61 -14 23 -20 50 -20 91 1 54 22 169 34
181 9 9 25 -8 85 -85 32 -42 95 -112 139 -155 45 -43 80 -84 78 -90 -1 -7 -1
-8 2 -4 2 5 15 -1 27 -13 l23 -22 120 21 c171 31 209 45 221 84 11 39 25 144
22 172 -1 11 -27 43 -58 71 -38 35 -51 53 -42 57 30 12 168 6 220 -9z m759
-79 c0 -40 -9 -48 -33 -31 -16 12 -16 16 -1 45 19 38 34 32 34 -14z m-3260
-105 c0 -11 -4 -20 -10 -20 -5 0 -10 9 -10 20 0 11 5 20 10 20 6 0 10 -9 10
-20z m3289 -254 c-9 -9 -50 25 -43 36 4 6 14 2 27 -11 12 -11 19 -23 16 -25z
m-2929 -9 c0 -14 -20 -37 -32 -37 -12 0 -10 24 4 38 16 16 28 15 28 -1z m-180
-42 c17 -20 -3 -45 -36 -45 -31 0 -36 12 -18 38 18 26 37 28 54 7z m130 1 c0
-16 -18 -31 -27 -22 -8 8 5 36 17 36 5 0 10 -6 10 -14z m2868 -193 c2 -8 -5
-13 -17 -13 -12 0 -21 6 -21 16 0 18 31 15 38 -3z m-2588 -48 c0 -8 -7 -15
-15 -15 -16 0 -20 12 -8 23 11 12 23 8 23 -8z m445 4 c10 -15 -1 -23 -20 -15
-9 3 -13 10 -10 16 8 13 22 13 30 -1z m2345 -33 c0 -8 -4 -17 -9 -20 -10 -7
-23 19 -14 28 11 11 23 6 23 -8z m-2910 -24 c0 -14 -11 -21 -26 -15 -21 8 -17
23 6 23 11 0 20 -4 20 -8z m80 -73 c0 -6 7 -9 15 -5 9 3 15 0 15 -9 0 -12 -5
-12 -25 -3 -25 11 -34 28 -15 28 6 0 10 -5 10 -11z m-7 -59 c-3 -12 0 -20 6
-20 7 0 9 -5 6 -11 -4 -6 -13 -8 -21 -5 -8 3 -14 -1 -14 -9 0 -8 5 -15 10 -15
6 0 10 -7 10 -15 0 -18 -5 -18 -31 -5 -23 13 -25 47 -3 78 19 28 44 29 37 2z
m27 -138 c0 -18 -27 -32 -63 -32 -48 0 -46 22 4 31 52 10 59 10 59 1z m384
-20 c8 -13 -44 -83 -56 -76 -7 4 -2 13 12 24 15 11 19 19 11 24 -18 12 -13 36
8 36 11 0 22 -4 25 -8z m-239 -828 c0 -35 -3 -39 -27 -42 -33 -4 -36 13 -12
59 20 40 39 32 39 -17z m240 -209 c0 -10 -6 -20 -12 -22 -8 -3 -13 5 -13 22 0
17 5 25 13 23 6 -3 12 -13 12 -23z m-33 -162 c19 -17 25 -63 8 -63 -5 0 -13 8
-19 17 -7 14 -12 15 -24 5 -23 -20 -31 3 -11 33 19 30 22 30 46 8z m348 -22
c0 -22 -26 -46 -34 -32 -9 14 12 63 24 56 5 -3 10 -14 10 -24z m-179 -94 c12
-26 -1 -95 -17 -87 -5 3 -8 22 -6 43 2 27 -1 39 -12 43 -23 9 -20 24 4 24 12
0 25 -10 31 -23z"/>
<path d="M4803 5644 l-22 -44 22 0 c12 0 35 7 51 15 16 9 35 14 43 11 11 -5
43 28 43 44 0 4 -13 5 -30 2 -16 -2 -42 0 -58 6 -27 9 -29 7 -49 -34z"/>
<path d="M5255 5710 c3 -5 8 -10 11 -10 2 0 4 5 4 10 0 6 -5 10 -11 10 -5 0
-7 -4 -4 -10z"/>
<path d="M4910 5212 c-33 -14 -33 -16 -11 -20 13 -2 31 3 39 12 23 23 12 26
-28 8z"/>
<path d="M3477 4963 c-4 -3 -7 -13 -7 -21 0 -12 3 -12 15 -2 8 7 15 16 15 21
0 11 -14 12 -23 2z"/>
<path d="M4043 4925 c-3 -9 -3 -18 0 -21 9 -9 27 6 27 22 0 19 -19 18 -27 -1z"/>
<path d="M3741 4799 c-57 -21 -111 -45 -121 -54 -9 -8 -20 -15 -24 -15 -4 0
-16 -9 -27 -19 -18 -17 -20 -26 -13 -92 3 -41 9 -78 11 -82 8 -14 139 117 192
192 12 17 28 31 34 31 12 0 63 68 56 73 -2 2 -51 -14 -108 -34z"/>
<path d="M3507 4319 c-10 -6 -15 -14 -12 -20 10 -14 45 -11 45 5 0 21 -12 26
-33 15z"/>
<path d="M4205 4080 c3 -5 8 -10 11 -10 2 0 4 5 4 10 0 6 -5 10 -11 10 -5 0
-7 -4 -4 -10z"/>
<path d="M4247 4053 c3 -7 8 -13 12 -13 4 0 8 6 8 13 0 8 -6 14 -13 14 -7 0
-10 -6 -7 -14z"/>
<path d="M5262 3808 c-16 -16 -15 -28 3 -28 8 0 15 9 15 20 0 23 -2 24 -18 8z"/>
<path d="M5275 3711 c-3 -5 -1 -12 5 -16 5 -3 10 1 10 9 0 18 -6 21 -15 7z"/>
<path d="M5360 3700 c0 -13 18 -22 24 -11 3 5 -1 11 -9 15 -8 3 -15 1 -15 -4z"/>
<path d="M4457 3636 c-6 -15 1 -26 15 -26 4 0 8 9 8 20 0 23 -15 27 -23 6z"/>
<path d="M5290 3640 c0 -5 7 -7 15 -4 8 4 15 8 15 10 0 2 -7 4 -15 4 -8 0 -15
-4 -15 -10z"/>
<path d="M5181 3604 c0 -11 3 -14 6 -6 3 7 2 16 -1 19 -3 4 -6 -2 -5 -13z"/>
<path d="M4580 3560 c0 -5 5 -10 11 -10 5 0 7 5 4 10 -3 6 -8 10 -11 10 -2 0
-4 -4 -4 -10z"/>
<path d="M4947 3484 c-4 -4 -35 -6 -69 -6 -94 2 -116 -10 -123 -67 -3 -25 -15
-64 -26 -87 -10 -23 -19 -44 -19 -46 0 -12 98 16 157 43 61 29 143 107 143
136 0 7 -12 18 -26 23 -30 12 -29 12 -37 4z"/>
<path d="M5230 3253 c-8 -3 -34 -14 -57 -24 l-43 -18 16 -43 c32 -90 -2 -143
-124 -200 -83 -38 -111 -65 -36 -33 21 8 44 13 51 11 7 -3 25 1 40 9 16 7 64
21 108 30 44 10 87 21 97 26 20 11 45 85 54 162 6 47 4 57 -8 57 -9 0 -21 7
-28 15 -12 15 -41 18 -70 8z"/>
<path d="M5470 3221 c0 -6 5 -13 10 -16 6 -3 10 1 10 9 0 9 -4 16 -10 16 -5 0
-10 -4 -10 -9z"/>
<path d="M4893 3135 c-24 -10 -34 -23 -42 -52 -6 -21 -11 -43 -11 -48 0 -6
-11 -32 -26 -58 l-25 -48 28 15 c44 23 115 95 109 111 -3 8 -1 17 5 21 19 12
31 57 17 66 -17 10 -17 10 -55 -7z"/>
<path d="M4730 3133 c-52 -4 -98 -23 -54 -23 14 0 20 -8 21 -32 2 -18 7 -34
13 -36 5 -2 10 -12 10 -22 0 -38 20 -29 55 22 35 53 46 100 23 96 -7 -1 -38
-3 -68 -5z"/>
<path d="M4463 3101 c-27 -17 -33 -30 -47 -91 -18 -78 -11 -129 23 -171 l18
-23 62 19 c34 10 65 23 68 28 3 5 -4 6 -16 2 -12 -3 -20 -3 -19 2 1 4 -4 19
-11 32 -12 21 -11 23 3 18 14 -6 15 -4 2 16 -8 12 -17 51 -21 87 -7 74 -13
100 -23 100 -4 0 -21 -9 -39 -19z"/>
<path d="M4802 2799 c2 -7 10 -15 17 -17 8 -3 12 1 9 9 -2 7 -10 15 -17 17 -8
3 -12 -1 -9 -9z"/>
<path d="M3689 7919 c-30 -35 -74 -83 -98 -107 -28 -28 -40 -47 -34 -53 10
-10 100 75 96 90 -1 5 21 34 49 65 28 31 48 59 45 62 -2 3 -29 -23 -58 -57z"/>
<path d="M3530 7739 c0 -11 4 -18 10 -14 5 3 7 12 3 20 -7 21 -13 19 -13 -6z"/>
<path d="M3511 7714 c0 -11 3 -14 6 -6 3 7 2 16 -1 19 -3 4 -6 -2 -5 -13z"/>
<path d="M3450 7637 c-25 -28 -35 -45 -24 -39 21 11 79 81 73 87 -2 1 -24 -20
-49 -48z"/>
<path d="M3916 7333 c-11 -11 -6 -23 9 -23 8 0 15 4 15 9 0 13 -16 22 -24 14z"/>
<path d="M3021 7195 c-57 -62 -51 -69 9 -10 28 27 50 51 50 52 0 13 -24 -4
-59 -42z"/>
<path d="M2685 6844 c-27 -36 -65 -78 -82 -94 -18 -17 -40 -45 -49 -63 -9 -17
-38 -53 -65 -79 -27 -25 -49 -52 -49 -60 0 -7 9 1 20 17 11 17 20 26 20 22 0
-11 -21 -51 -30 -57 -4 -3 -11 -16 -15 -30 -7 -22 -6 -23 9 -11 21 18 21 -1 0
-34 -8 -13 -18 -39 -20 -57 -3 -18 -7 -43 -9 -55 -10 -46 4 -21 20 35 29 100
116 249 251 433 35 48 64 89 64 93 0 17 -20 -1 -65 -60z"/>
<path d="M5457 6896 c-6 -15 1 -26 15 -26 11 0 10 27 -1 34 -5 3 -11 0 -14 -8z"/>
<path d="M5780 6852 c0 -4 5 -13 12 -20 15 -15 28 -16 28 -2 0 6 -7 10 -16 10
-8 0 -12 5 -9 10 3 6 1 10 -4 10 -6 0 -11 -4 -11 -8z"/>
<path d="M5475 6800 c3 -5 8 -10 11 -10 2 0 4 5 4 10 0 6 -5 10 -11 10 -5 0
-7 -4 -4 -10z"/>
<path d="M5826 6755 c4 -8 8 -15 10 -15 2 0 4 7 4 15 0 8 -4 15 -10 15 -5 0
-7 -7 -4 -15z"/>
<path d="M5425 6539 c-11 -17 1 -21 15 -4 8 9 8 15 2 15 -6 0 -14 -5 -17 -11z"/>
<path d="M3677 6494 c-8 -8 1 -24 14 -24 5 0 9 7 9 15 0 15 -12 20 -23 9z"/>
<path d="M5450 6490 c0 -5 5 -10 10 -10 6 0 10 5 10 10 0 6 -4 10 -10 10 -5 0
-10 -4 -10 -10z"/>
<path d="M3915 6459 c-9 -17 -41 -67 -71 -111 -30 -44 -54 -86 -54 -93 0 -7
-14 -25 -30 -39 l-30 -25 37 -10 c21 -6 74 -10 118 -9 73 2 82 4 107 30 67 68
88 166 46 206 -13 11 -35 24 -50 27 -16 4 -25 11 -22 16 5 9 -18 39 -30 39 -3
0 -13 -14 -21 -31z"/>
<path d="M2382 6398 c-3 -33 -2 -33 13 -10 9 12 13 27 10 32 -12 19 -21 10
-23 -22z"/>
<path d="M4760 6260 c0 -5 5 -10 10 -10 6 0 10 5 10 10 0 6 -4 10 -10 10 -5 0
-10 -4 -10 -10z"/>
<path d="M2331 6224 c0 -11 3 -14 6 -6 3 7 2 16 -1 19 -3 4 -6 -2 -5 -13z"/>
<path d="M2362 6131 c2 -7 7 -12 11 -12 12 1 9 15 -3 20 -7 2 -11 -2 -8 -8z"/>
<path d="M3960 6130 c0 -5 5 -10 10 -10 6 0 10 -7 10 -17 0 -9 3 -14 6 -10 8
8 -5 47 -17 47 -5 0 -9 -4 -9 -10z"/>
<path d="M2322 6090 c-1 -25 -7 -72 -12 -105 -7 -45 -6 -81 5 -147 9 -48 15
-126 16 -175 0 -48 0 -133 0 -188 0 -61 7 -137 20 -195 46 -222 70 -412 70
-555 0 -77 -5 -165 -11 -195 -7 -30 -20 -102 -30 -160 -11 -58 -26 -132 -34
-165 -26 -107 -37 -273 -26 -381 11 -100 34 -190 50 -196 5 -2 27 -45 50 -97
34 -78 53 -106 108 -161 88 -88 107 -112 104 -127 -2 -7 1 -13 6 -13 5 0 12
-9 15 -21 3 -12 10 -18 16 -14 7 3 11 -2 11 -14 0 -12 7 -21 15 -21 8 0 22
-15 31 -32 9 -18 28 -51 42 -73 22 -35 26 -37 32 -20 4 11 3 29 -3 40 -6 11
-10 28 -8 38 1 11 -14 33 -36 54 -21 20 -37 40 -35 45 1 5 -5 11 -13 14 -8 4
-15 17 -15 31 0 13 -11 34 -25 47 -14 13 -25 31 -25 40 0 21 -16 21 -24 -1 -5
-12 -9 -14 -18 -5 -9 9 -9 15 0 24 16 16 15 28 -3 28 -11 0 -14 7 -9 25 5 18
2 25 -9 25 -24 0 -96 97 -103 138 -3 21 -12 51 -20 69 -8 17 -14 39 -15 50 0
15 -1 16 -7 2 -6 -15 -10 -14 -37 1 -30 17 -30 18 -28 97 0 43 8 103 17 133 9
29 16 74 16 99 0 25 8 66 16 91 11 29 16 72 15 123 -1 43 2 84 8 91 12 14 39
207 42 296 2 69 -11 160 -42 301 -10 48 -19 111 -19 140 0 30 -7 79 -16 109
-8 30 -18 64 -21 75 -4 15 2 11 24 -13 24 -26 32 -30 36 -18 4 9 -1 23 -10 32
-11 10 -19 44 -24 97 -5 45 -13 116 -18 157 -6 41 -11 109 -11 150 -1 47 -4
68 -9 55 -25 -65 -50 214 -28 320 6 28 5 36 -2 25 -7 -10 -11 -3 -14 30 l-4
45 -1 -45z"/>
<path d="M3941 6043 c7 -10 15 -20 16 -22 2 -2 3 5 3 17 0 14 -6 22 -16 22
-14 0 -15 -3 -3 -17z"/>
<path d="M6110 5850 c13 -23 20 -26 20 -6 0 8 -7 16 -15 20 -13 4 -14 2 -5
-14z"/>
<path d="M6135 5800 c-3 -5 -1 -10 4 -10 6 0 11 5 11 10 0 6 -2 10 -4 10 -3 0
-8 -4 -11 -10z"/>
<path d="M6151 5484 c0 -11 3 -14 6 -6 3 7 2 16 -1 19 -3 4 -6 -2 -5 -13z"/>
<path d="M6127 5383 c-4 -3 -7 -11 -7 -17 0 -6 5 -5 12 2 6 6 9 14 7 17 -3 3
-9 2 -12 -2z"/>
<path d="M2445 5180 c3 -5 10 -10 16 -10 5 0 9 5 9 10 0 6 -7 10 -16 10 -8 0
-12 -4 -9 -10z"/>
<path d="M2395 3907 c-4 -10 -5 -21 -1 -24 10 -10 18 4 13 24 -4 17 -4 17 -12
0z"/>
<path d="M2401 3852 c-13 -25 -14 -59 -2 -66 5 -3 11 13 13 37 6 50 3 56 -11
29z"/>
<path d="M2411 3762 c-7 -13 -11 -26 -8 -28 8 -8 29 25 25 38 -3 8 -9 4 -17
-10z"/>
<path d="M2650 3360 c6 -11 16 -20 22 -20 6 0 3 9 -7 20 -10 11 -20 20 -22 20
-2 0 1 -9 7 -20z"/>
<path d="M2819 3023 c12 -24 31 -39 31 -25 0 5 -10 17 -21 28 -22 19 -22 19
-10 -3z"/>
<path d="M2805 2970 c3 -5 10 -10 16 -10 5 0 9 5 9 10 0 6 -7 10 -16 10 -8 0
-12 -4 -9 -10z"/>
<path d="M2857 2856 c-6 -15 52 -144 65 -145 5 -1 -48 148 -56 157 -2 1 -6 -4
-9 -12z"/>
<path d="M2937 2640 c3 -25 9 -49 14 -54 14 -15 10 35 -5 69 -14 30 -14 29 -9
-15z"/>
<path d="M5521 2629 c-90 -8 -558 -115 -578 -131 -16 -13 -48 -97 -40 -105 4
-3 12 -1 19 4 7 5 29 10 48 11 19 1 89 10 155 20 66 10 122 14 123 10 2 -4 11
-8 20 -8 10 0 37 -14 62 -30 25 -16 52 -30 61 -30 15 0 136 58 223 108 27 15
53 38 57 50 5 13 17 22 28 22 11 0 25 9 31 20 8 15 6 23 -11 38 -20 19 -65 33
-98 31 -9 -1 -54 -5 -100 -10z"/>
<path d="M5961 2609 c-11 -19 -10 -20 11 -14 31 10 76 34 63 34 -5 1 -17 -3
-25 -9 -8 -5 -19 -5 -25 0 -7 6 -15 2 -24 -11z"/>
<path d="M5920 2530 c-21 -7 -21 -8 -5 -9 11 0 27 4 35 9 18 11 5 11 -30 0z"/>
<path d="M5865 2394 c-44 -8 -100 -18 -125 -24 -54 -13 -134 -29 -175 -35
-112 -17 -163 -33 -170 -56 -4 -12 -22 -35 -41 -51 -19 -17 -34 -39 -34 -49 0
-10 -6 -19 -13 -19 -11 0 -26 -22 -90 -125 -6 -11 -15 -22 -18 -25 -4 -3 -9
-16 -10 -30 -3 -15 -15 -30 -32 -38 -54 -26 -60 -49 -40 -147 18 -85 17 -87
-1 -101 -13 -9 -47 -14 -95 -15 -42 0 -84 -2 -94 -4 -29 -5 -204 -153 -224
-189 -6 -12 -16 -21 -22 -21 -5 0 -34 -21 -63 -46 -136 -117 -213 -157 -430
-224 -68 -22 -69 -45 -3 -45 24 0 46 -4 49 -9 3 -4 76 -9 163 -10 87 -1 194
-6 238 -11 120 -15 431 -16 449 -1 7 6 38 14 67 18 28 3 60 13 69 22 10 9 46
32 80 51 35 19 84 54 111 78 26 23 51 42 55 42 13 0 104 106 104 121 0 7 14
34 31 60 17 27 28 53 24 59 -3 5 1 13 10 16 19 8 55 75 55 103 0 11 -9 25 -20
31 -11 6 -18 15 -15 21 10 14 45 11 51 -6 10 -25 27 -17 20 10 -4 14 -2 25 4
25 5 0 21 22 34 48 13 27 32 54 40 61 9 8 16 24 16 37 0 30 16 72 35 90 8 9
15 26 15 40 0 34 67 207 85 220 8 6 15 26 15 45 1 19 7 45 15 59 8 14 14 28
15 33 0 10 -39 7 -135 -9z"/>
<path d="M2953 2374 c-3 -8 -1 -20 5 -26 7 -7 10 -2 9 16 -2 30 -5 32 -14 10z"/>
<path d="M3904 2336 c-9 -9 -7 -18 6 -37 23 -29 29 -24 23 19 -6 35 -12 38
-29 18z"/>
<path d="M6090 2290 c0 -5 5 -10 10 -10 6 0 10 5 10 10 0 6 -4 10 -10 10 -5 0
-10 -4 -10 -10z"/>
<path d="M4980 2273 c-64 -6 -121 -26 -131 -44 -5 -10 -16 -16 -23 -13 -18 7
-53 -11 -88 -44 -31 -29 -35 -42 -13 -42 8 0 15 -8 15 -17 0 -13 -3 -14 -12
-5 -17 17 -50 14 -75 -7 -28 -23 -29 -31 -4 -31 10 0 65 -14 122 -30 64 -18
115 -28 132 -24 33 7 100 90 146 183 41 81 38 85 -69 74z m-210 -173 c0 -5 -5
-10 -11 -10 -5 0 -7 5 -4 10 3 6 8 10 11 10 2 0 4 -4 4 -10z"/>
<path d="M3000 2211 c0 -5 5 -13 10 -16 6 -3 10 -2 10 4 0 5 -4 13 -10 16 -5
3 -10 2 -10 -4z"/>
<path d="M3010 2171 c0 -5 7 -11 15 -15 8 -3 15 -1 15 3 0 5 -7 11 -15 15 -8
3 -15 1 -15 -3z"/>
<path d="M6032 2140 c0 -14 2 -19 5 -12 2 6 2 18 0 25 -3 6 -5 1 -5 -13z"/>
<path d="M3020 2123 c0 -5 7 -17 15 -27 14 -19 15 -19 15 7 0 17 -5 27 -15 27
-8 0 -15 -3 -15 -7z"/>
<path d="M3051 2052 c-1 -26 36 -142 50 -156 14 -15 10 0 -21 94 -15 47 -28
75 -29 62z"/>
<path d="M6046 1915 c-18 -18 -22 -60 -5 -50 12 8 32 56 25 62 -2 2 -11 -3
-20 -12z"/>
<path d="M5998 1815 c-24 -46 -31 -75 -19 -75 6 0 11 8 11 18 0 10 7 28 16 40
8 12 14 28 11 35 -2 6 -11 -1 -19 -18z"/>
<path d="M4920 1788 c0 -19 2 -20 10 -8 13 19 13 30 0 30 -5 0 -10 -10 -10
-22z"/>
<path d="M5850 1711 c0 -25 6 -27 13 -6 4 8 2 17 -3 20 -6 4 -10 -3 -10 -14z"/>
<path d="M5919 1629 c-16 -34 -29 -63 -27 -65 2 -2 18 26 36 61 17 36 30 65
27 65 -3 0 -19 -27 -36 -61z"/>
<path d="M5826 1635 c-9 -26 -7 -32 5 -12 6 10 9 21 6 23 -2 3 -7 -2 -11 -11z"/>
<path d="M3230 1501 c0 -5 5 -13 10 -16 6 -3 10 -2 10 4 0 5 -4 13 -10 16 -5
3 -10 2 -10 -4z"/>
<path d="M5570 1220 c-12 -16 -19 -30 -16 -30 2 0 14 14 26 30 12 17 19 30 16
30 -2 0 -14 -13 -26 -30z"/>
<path d="M3550 1208 c11 -11 100 -46 100 -40 0 4 -12 12 -27 19 -35 14 -80 27
-73 21z"/>
<path d="M5482 1118 c-14 -14 -16 -28 -3 -28 9 0 24 30 18 36 -2 2 -9 -2 -15
-8z"/>
<path d="M4194 1002 c6 -10 72 -9 82 1 4 4 -14 7 -40 7 -26 0 -45 -4 -42 -8z"/>
<path d="M4453 973 c20 -2 54 -2 75 0 20 2 3 4 -38 4 -41 0 -58 -2 -37 -4z"/>
<path d="M4581 966 c11 -9 69 -15 64 -6 -3 6 -20 10 -37 10 -17 0 -29 -2 -27
-4z"/>
<path d="M4049 904 c29 -14 59 -23 65 -21 10 3 -97 48 -112 46 -4 0 17 -12 47
-25z"/>
</g>
</svg>
